<svg width="28" height="21" viewBox="0 0 28 21" fill="none" xmlns="http://www.w3.org/2000/svg">
<path d="M6.5 3C8.22391 3 9.87721 3.68482 11.0962 4.90381C12.3152 6.12279 13 7.77609 13 9.5C13 11.11 12.41 12.59 11.44 13.73L11.71 14H12.5L17.5 19L16 20.5L11 15.5V14.71L10.73 14.44C9.59 15.41 8.11 16 6.5 16C4.77609 16 3.12279 15.3152 1.90381 14.0962C0.684819 12.8772 0 11.2239 0 9.5C0 7.77609 0.684819 6.12279 1.90381 4.90381C3.12279 3.68482 4.77609 3 6.5 3ZM6.5 5C4 5 2 7 2 9.5C2 12 4 14 6.5 14C9 14 11 12 11 9.5C11 7 9 5 6.5 5Z" fill="#707070"/>
<line x1="27.5" x2="27.5" y2="20" stroke="#707070"/>
</svg>
